<mxfile host="Electron" agent="Mozilla/5.0 (Windows NT 10.0; Win64; x64) AppleWebKit/537.36 (KHTML, like Gecko) draw.io/28.1.2 Chrome/138.0.7204.243 Electron/37.4.0 Safari/537.36" version="28.1.2">
  <diagram name="Page-1" id="RkdXQIjJ2kGwbyeTL3oT">
    <mxGraphModel dx="1412" dy="827" grid="1" gridSize="10" guides="1" tooltips="1" connect="1" arrows="1" fold="1" page="1" pageScale="1" pageWidth="680" pageHeight="680" math="0" shadow="0">
      <root>
        <mxCell id="0" />
        <mxCell id="1" parent="0" />
        <mxCell id="2VZnBvj8zSzdbz6oa1XA-10" value="" style="rounded=1;whiteSpace=wrap;html=1;gradientColor=none;fillColor=none;strokeColor=#CCCCCC;strokeWidth=4;" vertex="1" parent="1">
          <mxGeometry x="40" y="40" width="600" height="600" as="geometry" />
        </mxCell>
        <mxCell id="2VZnBvj8zSzdbz6oa1XA-1" value="" style="group" vertex="1" connectable="0" parent="1">
          <mxGeometry x="70" y="70" width="370" height="395" as="geometry" />
        </mxCell>
        <mxCell id="2VZnBvj8zSzdbz6oa1XA-2" value="" style="ellipse;whiteSpace=wrap;html=1;aspect=fixed;strokeWidth=12;strokeColor=#0FADE8;fillColor=#33FF33;" vertex="1" parent="2VZnBvj8zSzdbz6oa1XA-1">
          <mxGeometry x="256.1538461538462" y="244.18181818181816" width="113.84615384615385" height="113.84615384615385" as="geometry" />
        </mxCell>
        <mxCell id="2VZnBvj8zSzdbz6oa1XA-3" value="" style="curved=1;endArrow=none;html=1;rounded=0;startFill=0;entryX=0.5;entryY=0;entryDx=0;entryDy=0;exitX=0.5;exitY=1;exitDx=0;exitDy=0;strokeWidth=12;strokeColor=#0FADE8;" edge="1" parent="2VZnBvj8zSzdbz6oa1XA-1" source="2VZnBvj8zSzdbz6oa1XA-2" target="2VZnBvj8zSzdbz6oa1XA-2">
          <mxGeometry width="50" height="50" relative="1" as="geometry">
            <mxPoint x="42.69230769230769" y="280.09090909090907" as="sourcePoint" />
            <mxPoint x="213.46153846153848" y="215.45454545454544" as="targetPoint" />
            <Array as="points">
              <mxPoint x="185" y="395" />
              <mxPoint x="85.38461538461539" y="330.3636363636364" />
              <mxPoint x="49.80769230769231" y="251.36363636363635" />
              <mxPoint x="56.92307692307693" y="143.63636363636363" />
              <mxPoint x="128.0769230769231" y="107.72727272727272" />
              <mxPoint x="213.46153846153848" y="129.27272727272725" />
              <mxPoint x="227.6923076923077" y="251.36363636363635" />
            </Array>
          </mxGeometry>
        </mxCell>
        <mxCell id="2VZnBvj8zSzdbz6oa1XA-4" value="" style="ellipse;whiteSpace=wrap;html=1;aspect=fixed;strokeWidth=12;fillColor=#33FF33;strokeColor=#0FADE8;" vertex="1" parent="2VZnBvj8zSzdbz6oa1XA-1">
          <mxGeometry x="135.1923076923077" y="165.1818181818182" width="28.461538461538463" height="28.461538461538463" as="geometry" />
        </mxCell>
        <mxCell id="2VZnBvj8zSzdbz6oa1XA-5" value="" style="curved=1;endArrow=oval;html=1;rounded=0;startFill=1;strokeWidth=12;strokeColor=#0FADE8;targetPerimeterSpacing=0;startArrow=oval;endFill=1;" edge="1" parent="2VZnBvj8zSzdbz6oa1XA-1">
          <mxGeometry width="50" height="50" relative="1" as="geometry">
            <mxPoint x="192.1153846153846" y="366.27272727272725" as="sourcePoint" />
            <mxPoint x="170.76923076923077" y="287.27272727272725" as="targetPoint" />
            <Array as="points">
              <mxPoint x="163.65384615384616" y="351.9090909090909" />
              <mxPoint x="156.53846153846155" y="308.8181818181818" />
            </Array>
          </mxGeometry>
        </mxCell>
        <mxCell id="2VZnBvj8zSzdbz6oa1XA-6" value="" style="curved=1;endArrow=none;html=1;rounded=0;startFill=0;strokeWidth=12;strokeColor=#0FADE8;" edge="1" parent="2VZnBvj8zSzdbz6oa1XA-1">
          <mxGeometry width="50" height="50" relative="1" as="geometry">
            <mxPoint x="149.42307692307693" y="114.9090909090909" as="sourcePoint" />
            <mxPoint x="192.1153846153846" y="35.90909090909091" as="targetPoint" />
            <Array as="points">
              <mxPoint x="149.42307692307693" y="64.63636363636363" />
              <mxPoint x="156.53846153846155" />
              <mxPoint x="199.23076923076923" />
              <mxPoint x="234.80769230769232" y="14.363636363636363" />
              <mxPoint x="263.2692307692308" y="50.27272727272727" />
              <mxPoint x="249.03846153846155" y="79" />
              <mxPoint x="199.23076923076923" y="79" />
            </Array>
          </mxGeometry>
        </mxCell>
        <mxCell id="2VZnBvj8zSzdbz6oa1XA-7" value="" style="endArrow=none;html=1;rounded=1;strokeWidth=12;strokeColor=#0FADE8;targetPerimeterSpacing=0;jumpStyle=none;jumpSize=10;curved=0;shadow=0;flowAnimation=0;sketch=1;curveFitting=1;jiggle=2;" edge="1" parent="2VZnBvj8zSzdbz6oa1XA-1">
          <mxGeometry width="50" height="50" relative="1" as="geometry">
            <mxPoint x="170.76923076923077" y="114.9090909090909" as="sourcePoint" />
            <mxPoint x="192.1153846153846" y="35.90909090909091" as="targetPoint" />
          </mxGeometry>
        </mxCell>
        <mxCell id="2VZnBvj8zSzdbz6oa1XA-8" value="" style="curved=1;endArrow=none;html=1;rounded=0;strokeWidth=12;startFill=0;strokeColor=#0FADE8;" edge="1" parent="2VZnBvj8zSzdbz6oa1XA-1">
          <mxGeometry width="50" height="50" relative="1" as="geometry">
            <mxPoint x="120.96153846153847" y="114.9090909090909" as="sourcePoint" />
            <mxPoint x="71.15384615384616" y="35.90909090909091" as="targetPoint" />
            <Array as="points">
              <mxPoint x="120.96153846153847" y="57.45454545454545" />
              <mxPoint x="92.5" />
              <mxPoint y="7.181818181818182" />
              <mxPoint y="64.63636363636363" />
              <mxPoint x="49.80769230769231" y="71.81818181818181" />
            </Array>
          </mxGeometry>
        </mxCell>
        <mxCell id="2VZnBvj8zSzdbz6oa1XA-9" value="" style="endArrow=none;html=1;rounded=0;strokeWidth=12;strokeColor=#0FADE8;sketch=1;curveFitting=1;jiggle=2;" edge="1" parent="2VZnBvj8zSzdbz6oa1XA-1">
          <mxGeometry width="50" height="50" relative="1" as="geometry">
            <mxPoint x="99.61538461538461" y="122.09090909090908" as="sourcePoint" />
            <mxPoint x="71.15384615384616" y="35.90909090909091" as="targetPoint" />
          </mxGeometry>
        </mxCell>
        <mxCell id="2VZnBvj8zSzdbz6oa1XA-12" value="" style="verticalLabelPosition=bottom;verticalAlign=top;html=1;shape=mxgraph.basic.6_point_star;rotation=30;fillColor=#FFFF66;strokeColor=#FF9933;strokeWidth=5;" vertex="1" parent="1">
          <mxGeometry x="420" y="440" width="180" height="155" as="geometry" />
        </mxCell>
      </root>
    </mxGraphModel>
  </diagram>
</mxfile>
